<svg width="820" height="646" viewBox="0 0 820 646" fill="none" xmlns="http://www.w3.org/2000/svg">
<path d="M325.198 11.25L435.5 119.75L241.5 230.75L241.5 94.25L325.198 11.25Z" fill="white" stroke="black" stroke-width="5"/>
<path d="M204 351.75L204 223.75V132.75L65.5 272.75L204 351.75Z" fill="white" stroke="black" stroke-width="5"/>
<path d="M36.5 298.25L287.5 439.75L188 497.75L11 323.25L36.5 298.25Z" fill="white" stroke="black" stroke-width="5"/>
<path d="M408 410.75L408 551.25L325 635.25L214 525.25L408 410.75Z" fill="white" stroke="black" stroke-width="5"/>
<path d="M754.106 397.33C743.186 397.33 733.479 395.163 724.986 390.83C716.666 386.323 710.166 380.083 705.486 372.11C700.979 363.963 698.726 354.603 698.726 344.03V264.21C698.726 248.09 703.752 235.263 713.806 225.73C724.032 216.023 737.466 211.17 754.106 211.17C770.746 211.17 784.092 215.937 794.146 225.47C804.199 235.003 809.226 247.657 809.226 263.43V265.51C809.226 266.377 808.966 267.07 808.446 267.59C807.926 268.11 807.319 268.37 806.626 268.37L786.866 269.41C785.132 269.41 784.266 268.543 784.266 266.81V262.91C784.266 253.897 781.492 246.617 775.946 241.07C770.399 235.523 763.119 232.75 754.106 232.75C745.092 232.75 737.726 235.523 732.006 241.07C726.459 246.617 723.686 253.897 723.686 262.91V345.59C723.686 354.603 726.459 361.883 732.006 367.43C737.726 372.977 745.092 375.75 754.106 375.75C763.119 375.75 770.399 372.977 775.946 367.43C781.492 361.883 784.266 354.603 784.266 345.59V341.95C784.266 340.217 785.132 339.35 786.866 339.35L806.626 340.39C808.359 340.39 809.226 341.257 809.226 342.99V344.81C809.226 355.21 806.886 364.397 802.206 372.37C797.699 380.343 791.286 386.497 782.966 390.83C774.646 395.163 765.026 397.33 754.106 397.33Z" fill="white" stroke="black" stroke-width="5"/>
<path d="M616.235 397.33C605.315 397.33 595.608 395.163 587.115 390.83C578.795 386.323 572.295 380.083 567.615 372.11C563.108 363.963 560.855 354.603 560.855 344.03V264.21C560.855 248.09 565.881 235.263 575.935 225.73C586.161 216.023 599.595 211.17 616.235 211.17C632.875 211.17 646.221 215.937 656.275 225.47C666.328 235.003 671.355 247.657 671.355 263.43V265.51C671.355 266.377 671.095 267.07 670.575 267.59C670.055 268.11 669.448 268.37 668.755 268.37L648.995 269.41C647.261 269.41 646.395 268.543 646.395 266.81V262.91C646.395 253.897 643.621 246.617 638.075 241.07C632.528 235.523 625.248 232.75 616.235 232.75C607.221 232.75 599.855 235.523 594.135 241.07C588.588 246.617 585.815 253.897 585.815 262.91V345.59C585.815 354.603 588.588 361.883 594.135 367.43C599.855 372.977 607.221 375.75 616.235 375.75C625.248 375.75 632.528 372.977 638.075 367.43C643.621 361.883 646.395 354.603 646.395 345.59V341.95C646.395 340.217 647.261 339.35 648.995 339.35L668.755 340.39C670.488 340.39 671.355 341.257 671.355 342.99V344.81C671.355 355.21 669.015 364.397 664.335 372.37C659.828 380.343 653.415 386.497 645.095 390.83C636.775 395.163 627.155 397.33 616.235 397.33Z" fill="white" stroke="black" stroke-width="5"/>
<path d="M481.337 397.33C470.244 397.33 460.451 395.337 451.957 391.35C443.637 387.19 437.137 381.47 432.457 374.19C427.951 366.91 425.697 358.417 425.697 348.71V341.69C425.697 339.957 426.564 339.09 428.297 339.09H447.537C449.271 339.09 450.137 339.957 450.137 341.69V347.41C450.137 355.903 452.997 362.75 458.717 367.95C464.611 373.15 472.497 375.75 482.377 375.75C491.217 375.75 498.151 373.41 503.177 368.73C508.377 363.877 510.977 357.55 510.977 349.75C510.977 344.55 509.677 340.043 507.077 336.23C504.477 332.417 500.664 328.863 495.637 325.57C490.784 322.277 483.677 318.117 474.317 313.09C463.744 307.543 455.251 302.603 448.837 298.27C442.597 293.937 437.397 288.477 433.237 281.89C429.077 275.303 426.997 267.33 426.997 257.97C426.997 243.41 431.764 231.97 441.297 223.65C450.831 215.33 463.484 211.17 479.257 211.17C490.177 211.17 499.797 213.25 508.117 217.41C516.437 221.57 522.851 227.463 527.357 235.09C532.037 242.543 534.377 251.21 534.377 261.09V267.07C534.377 268.803 533.511 269.67 531.777 269.67H512.277C510.544 269.67 509.677 268.803 509.677 267.07V261.61C509.677 253.117 506.904 246.183 501.357 240.81C495.811 235.437 488.271 232.75 478.737 232.75C470.244 232.75 463.571 234.917 458.717 239.25C454.037 243.583 451.697 249.737 451.697 257.71C451.697 262.91 452.824 267.33 455.077 270.97C457.504 274.61 461.144 278.077 465.997 281.37C470.851 284.49 478.044 288.477 487.577 293.33C499.537 300.09 508.551 305.637 514.617 309.97C520.857 314.303 525.884 319.59 529.697 325.83C533.684 332.07 535.677 339.61 535.677 348.45C535.677 363.357 530.737 375.23 520.857 384.07C511.151 392.91 497.977 397.33 481.337 397.33Z" fill="white" stroke="black" stroke-width="5"/>
<path d="M349.56 397.33C338.467 397.33 328.673 395.337 320.18 391.35C311.86 387.19 305.36 381.47 300.68 374.19C296.173 366.91 293.92 358.417 293.92 348.71V341.69C293.92 339.957 294.787 339.09 296.52 339.09H315.76C317.493 339.09 318.36 339.957 318.36 341.69V347.41C318.36 355.903 321.22 362.75 326.94 367.95C332.833 373.15 340.72 375.75 350.6 375.75C359.44 375.75 366.373 373.41 371.4 368.73C376.6 363.877 379.2 357.55 379.2 349.75C379.2 344.55 377.9 340.043 375.3 336.23C372.7 332.417 368.887 328.863 363.86 325.57C359.007 322.277 351.9 318.117 342.54 313.09C331.967 307.543 323.473 302.603 317.06 298.27C310.82 293.937 305.62 288.477 301.46 281.89C297.3 275.303 295.22 267.33 295.22 257.97C295.22 243.41 299.987 231.97 309.52 223.65C319.053 215.33 331.707 211.17 347.48 211.17C358.4 211.17 368.02 213.25 376.34 217.41C384.66 221.57 391.073 227.463 395.58 235.09C400.26 242.543 402.6 251.21 402.6 261.09V267.07C402.6 268.803 401.733 269.67 400 269.67H380.5C378.767 269.67 377.9 268.803 377.9 267.07V261.61C377.9 253.117 375.127 246.183 369.58 240.81C364.033 235.437 356.493 232.75 346.96 232.75C338.467 232.75 331.793 234.917 326.94 239.25C322.26 243.583 319.92 249.737 319.92 257.71C319.92 262.91 321.047 267.33 323.3 270.97C325.727 274.61 329.367 278.077 334.22 281.37C339.073 284.49 346.267 288.477 355.8 293.33C367.76 300.09 376.773 305.637 382.84 309.97C389.08 314.303 394.107 319.59 397.92 325.83C401.907 332.07 403.9 339.61 403.9 348.45C403.9 363.357 398.96 375.23 389.08 384.07C379.373 392.91 366.2 397.33 349.56 397.33Z" fill="white" stroke="black" stroke-width="5"/>
</svg>
