<svg width="820" height="761" viewBox="0 0 820 761" fill="none" xmlns="http://www.w3.org/2000/svg">
<path d="M326.453 69.005L437.196 177.938L242.421 289.382L242.421 152.337L326.453 69.005Z" fill="url(#paint0_linear_3_89)"/>
<path d="M204.771 410.865L204.771 282.354V190.99L65.7177 331.55L204.771 410.865Z" fill="url(#paint1_linear_3_89)"/>
<path d="M36.6019 357.152L288.605 499.217L188.707 557.449L11 382.252L36.6019 357.152Z" fill="url(#paint2_linear_3_89)"/>
<path d="M409.586 470.101L409.586 611.162L326.255 695.498L214.811 585.058L409.586 470.101Z" fill="url(#paint3_linear_3_89)"/>
<path d="M757.075 456.627C746.111 456.627 736.366 454.452 727.838 450.101C719.485 445.577 712.959 439.312 708.26 431.307C703.736 423.127 701.473 413.73 701.473 403.114V322.976C701.473 306.791 706.52 293.913 716.614 284.342C726.881 274.596 740.368 269.724 757.075 269.724C773.781 269.724 787.181 274.509 797.275 284.081C807.368 293.652 812.415 306.356 812.415 322.192V324.281C812.415 325.151 812.154 325.847 811.632 326.369C811.11 326.891 810.501 327.152 809.804 327.152L789.965 328.196C788.225 328.196 787.355 327.326 787.355 325.586V321.67C787.355 312.621 784.571 305.312 779.002 299.743C773.433 294.174 766.124 291.39 757.075 291.39C748.025 291.39 740.629 294.174 734.886 299.743C729.317 305.312 726.533 312.621 726.533 321.67V404.681C726.533 413.73 729.317 421.039 734.886 426.608C740.629 432.177 748.025 434.961 757.075 434.961C766.124 434.961 773.433 432.177 779.002 426.608C784.571 421.039 787.355 413.73 787.355 404.681V401.026C787.355 399.286 788.225 398.416 789.965 398.416L809.804 399.46C811.545 399.46 812.415 400.33 812.415 402.07V403.898C812.415 414.339 810.065 423.563 805.367 431.568C800.842 439.573 794.403 445.751 786.05 450.101C777.697 454.452 768.038 456.627 757.075 456.627Z" fill="#242550"/>
<path d="M618.653 456.627C607.689 456.627 597.944 454.452 589.416 450.101C581.063 445.577 574.537 439.312 569.838 431.307C565.314 423.127 563.051 413.73 563.051 403.114V322.976C563.051 306.791 568.098 293.913 578.192 284.342C588.459 274.596 601.946 269.724 618.653 269.724C635.359 269.724 648.759 274.509 658.853 284.081C668.946 293.652 673.993 306.356 673.993 322.192V324.281C673.993 325.151 673.732 325.847 673.21 326.369C672.688 326.891 672.079 327.152 671.383 327.152L651.544 328.196C649.803 328.196 648.933 327.326 648.933 325.586V321.67C648.933 312.621 646.149 305.312 640.58 299.743C635.011 294.174 627.702 291.39 618.653 291.39C609.603 291.39 602.207 294.174 596.464 299.743C590.896 305.312 588.111 312.621 588.111 321.67V404.681C588.111 413.73 590.896 421.039 596.464 426.608C602.207 432.177 609.603 434.961 618.653 434.961C627.702 434.961 635.011 432.177 640.58 426.608C646.149 421.039 648.933 413.73 648.933 404.681V401.026C648.933 399.286 649.803 398.416 651.544 398.416L671.383 399.46C673.123 399.46 673.993 400.33 673.993 402.07V403.898C673.993 414.339 671.644 423.563 666.945 431.568C662.42 439.573 655.981 445.751 647.628 450.101C639.275 454.452 629.616 456.627 618.653 456.627Z" fill="#242550"/>
<path d="M483.216 456.627C472.079 456.627 462.246 454.626 453.719 450.624C445.366 446.447 438.84 440.704 434.141 433.395C429.616 426.086 427.354 417.559 427.354 407.813V400.765C427.354 399.025 428.224 398.155 429.965 398.155H449.281C451.022 398.155 451.892 399.025 451.892 400.765V406.508C451.892 415.035 454.763 421.909 460.506 427.13C466.423 432.351 474.341 434.961 484.261 434.961C493.136 434.961 500.097 432.612 505.144 427.913C510.364 423.04 512.975 416.689 512.975 408.857C512.975 403.637 511.67 399.112 509.059 395.283C506.449 391.455 502.62 387.887 497.574 384.581C492.701 381.274 485.566 377.098 476.168 372.051C465.553 366.482 457.026 361.522 450.587 357.172C444.322 352.821 439.101 347.339 434.924 340.726C430.748 334.113 428.659 326.108 428.659 316.711C428.659 302.092 433.445 290.607 443.016 282.254C452.588 273.9 465.292 269.724 481.128 269.724C492.092 269.724 501.75 271.812 510.103 275.989C518.457 280.165 524.896 286.082 529.42 293.739C534.119 301.222 536.468 309.924 536.468 319.843V325.847C536.468 327.587 535.598 328.457 533.858 328.457H514.28C512.54 328.457 511.67 327.587 511.67 325.847V320.365C511.67 311.838 508.885 304.877 503.316 299.482C497.748 294.087 490.177 291.39 480.606 291.39C472.079 291.39 465.379 293.565 460.506 297.916C455.807 302.267 453.458 308.444 453.458 316.45C453.458 321.67 454.589 326.108 456.852 329.763C459.288 333.417 462.942 336.898 467.815 340.204C472.688 343.337 479.91 347.339 489.481 352.212C501.489 358.999 510.538 364.568 516.629 368.918C522.894 373.269 527.941 378.577 531.77 384.842C535.772 391.107 537.774 398.677 537.774 407.552C537.774 422.518 532.814 434.439 522.894 443.314C513.149 452.19 499.923 456.627 483.216 456.627Z" fill="#242550"/>
<path d="M350.913 456.627C339.775 456.627 329.942 454.626 321.415 450.624C313.062 446.447 306.536 440.704 301.837 433.395C297.313 426.086 295.05 417.559 295.05 407.813V400.765C295.05 399.025 295.92 398.155 297.661 398.155H316.978C318.718 398.155 319.588 399.025 319.588 400.765V406.508C319.588 415.035 322.459 421.909 328.202 427.13C334.119 432.351 342.037 434.961 351.957 434.961C360.832 434.961 367.793 432.612 372.84 427.913C378.061 423.04 380.671 416.689 380.671 408.857C380.671 403.637 379.366 399.112 376.755 395.283C374.145 391.455 370.316 387.887 365.27 384.581C360.397 381.274 353.262 377.098 343.865 372.051C333.249 366.482 324.722 361.522 318.283 357.172C312.018 352.821 306.797 347.339 302.62 340.726C298.444 334.113 296.355 326.108 296.355 316.711C296.355 302.092 301.141 290.607 310.713 282.254C320.284 273.9 332.988 269.724 348.824 269.724C359.788 269.724 369.446 271.812 377.8 275.989C386.153 280.165 392.592 286.082 397.116 293.739C401.815 301.222 404.164 309.924 404.164 319.843V325.847C404.164 327.587 403.294 328.457 401.554 328.457H381.976C380.236 328.457 379.366 327.587 379.366 325.847V320.365C379.366 311.838 376.581 304.877 371.013 299.482C365.444 294.087 357.874 291.39 348.302 291.39C339.775 291.39 333.075 293.565 328.202 297.916C323.504 302.267 321.154 308.444 321.154 316.45C321.154 321.67 322.285 326.108 324.548 329.763C326.984 333.417 330.639 336.898 335.511 340.204C340.384 343.337 347.606 347.339 357.178 352.212C369.185 358.999 378.235 364.568 384.326 368.918C390.59 373.269 395.637 378.577 399.466 384.842C403.468 391.107 405.47 398.677 405.47 407.552C405.47 422.518 400.51 434.439 390.59 443.314C380.845 452.19 367.619 456.627 350.913 456.627Z" fill="#242550"/>
<defs>
<linearGradient id="paint0_linear_3_89" x1="239.911" y1="296.912" x2="368.422" y2="116.193" gradientUnits="userSpaceOnUse">
<stop stop-color="#F7EA3A"/>
<stop offset="1" stop-color="#F4CA29"/>
</linearGradient>
<linearGradient id="paint1_linear_3_89" x1="128.467" y1="361.168" x2="206.779" y2="190.488" gradientUnits="userSpaceOnUse">
<stop stop-color="#1461A2"/>
<stop offset="1" stop-color="#252754"/>
</linearGradient>
<linearGradient id="paint2_linear_3_89" x1="227.361" y1="536.867" x2="26.5619" y2="373.718" gradientUnits="userSpaceOnUse">
<stop stop-color="#B1A5A5"/>
<stop offset="1" stop-color="#818588"/>
</linearGradient>
<linearGradient id="paint3_linear_3_89" x1="400.048" y1="632.748" x2="276.055" y2="562.971" gradientUnits="userSpaceOnUse">
<stop stop-color="#E0C094"/>
<stop offset="1" stop-color="#C79949"/>
</linearGradient>
</defs>
</svg>
